<svg width="160" height="50" viewBox="0 0 160 50" fill="none" xmlns="http://www.w3.org/2000/svg">
<path d="M34.2938 2.16995C35.8631 2.05949 37.4768 2.12172 39.0381 2.3075C44.434 2.94953 49.8623 6.14713 53.2185 10.4483C53.4433 10.7363 53.6611 11.0296 53.872 11.3283C54.0825 11.627 54.2858 11.9307 54.4821 12.2394C54.6784 12.5481 54.867 12.8614 55.048 13.1793C55.229 13.4973 55.4021 13.8195 55.5674 14.1459C55.7331 14.4724 55.8908 14.8027 56.0405 15.1369C56.1898 15.471 56.3312 15.8087 56.4645 16.1498C56.5978 16.4909 56.723 16.8351 56.84 17.1823C56.9566 17.5295 57.0649 17.8795 57.1648 18.232C57.265 18.5846 57.3566 18.9394 57.4394 19.2965C57.5223 19.6535 57.5964 20.0124 57.6618 20.3731C57.7276 20.7338 57.7845 21.0959 57.8325 21.4594C57.8805 21.8229 57.92 22.1873 57.9509 22.5527C57.9815 22.9181 58.0032 23.2841 58.016 23.6506C58.0291 24.0171 58.0334 24.3837 58.0288 24.7504C58.0242 25.1171 58.0106 25.4834 57.9882 25.8494C57.9658 26.2155 57.9347 26.5808 57.8949 26.9453C57.457 30.6562 55.3216 36.6848 52.3474 39.048C53.4901 39.3009 55.9466 39.354 56.7536 40.1099C56.769 40.3379 56.7984 40.4404 56.6714 40.6395C55.9301 41.801 53.841 42.5196 52.5635 42.788C51.5671 42.465 50.6526 41.9015 49.6804 41.5033C49.7215 41.4808 49.7622 41.4576 49.8024 41.4335C50.5281 41 52.0029 39.8598 52.2131 39.0289C51.8703 38.6182 49.1855 37.557 48.4921 37.1412C47.938 36.8087 47.454 36.3724 46.9755 35.9394C47.42 35.3563 50.7788 29.3205 50.8279 28.9336C50.836 28.8705 50.8431 28.8081 50.8448 28.7444C50.8583 28.6851 50.8681 28.624 50.8635 28.563C50.8341 28.1737 50.5889 27.6753 50.2949 27.4218C49.2806 26.5475 45.701 27.2999 44.3962 27.4092C44.5246 26.9232 44.6514 26.3419 44.6242 25.8369C44.6025 25.4345 44.4781 24.8295 44.163 24.5527C44.0319 24.4374 43.9562 24.4739 43.7914 24.4837C42.8557 25.102 42.4813 27.088 42.0041 28.0977C41.0422 30.1331 39.6233 30.8546 37.6175 31.5689C37.4393 31.8817 37.2823 32.1969 37.1629 32.5373C36.8061 33.5537 36.7718 34.317 37.2403 35.3074C37.6486 35.6103 38.1523 35.9739 38.6837 35.91C40.4305 35.6998 41.3536 33.137 42.2877 31.9324L42.5023 31.9614C42.8652 32.9018 43.3093 33.8092 43.7376 34.7205L44.3429 35.7295C42.2758 37.213 40.5898 37.6834 38.1188 37.9947C37.4683 38.9089 36.8744 39.7696 36.8522 40.9338C36.8426 41.4322 36.9427 42.0082 37.3042 42.3767C37.5314 42.6082 37.8389 42.7059 38.1572 42.6999C40.0755 42.6638 44.2168 38.9375 45.6128 37.4836C46.3241 38.2345 49.5285 41.0762 49.753 41.5912C49.5346 42.2798 47.3998 43.447 46.7042 43.8454C41.5397 46.8031 35.4337 47.2471 29.7631 45.661C25.8503 44.5666 22.4642 42.3922 19.7429 39.3717C19.151 38.7147 18.5616 38.1395 18.1239 37.3599C16.8581 37.6179 15.4575 37.9161 14.2775 37.196C13.1913 36.533 12.8846 35.3403 12.6055 34.1799C12.996 32.5242 13.7063 31.8866 14.9787 30.8879C14.1125 29.3661 13.9463 27.3219 13.8037 25.6008C13.3334 19.9256 15.3906 14.1996 19.0104 9.89213C22.9152 5.24549 28.3271 2.66526 34.2938 2.16995ZM26.1299 37.0634C26.0474 38.4033 25.8096 40.2992 26.7503 41.39C27.1723 41.8794 27.7864 42.0699 28.4103 42.1072C30.0955 42.208 32.1288 41.6173 33.7226 41.0773C34.5981 40.502 35.011 39.9013 35.2299 38.8679C35.7647 36.3428 35.1969 32.8529 34.6063 30.3602C33.7273 30.1742 30.3921 29.7329 29.9028 28.9932C29.8802 28.9591 29.8621 28.9231 29.8458 28.8856L29.9727 28.6218C30.943 28.4255 32.6337 28.8835 33.2859 27.8765C33.5169 27.5197 33.4942 27.0922 33.4052 26.6912C33.2474 25.9798 32.7438 25.4255 32.1437 25.048C31.3914 24.5747 30.4565 24.2872 29.6069 24.0488L29.6062 22.017C31.5054 22.193 34.0304 22.1931 35.5841 20.8792C36.1419 20.4075 36.5563 19.7458 36.6171 19.002C36.6293 18.8582 36.6272 18.7146 36.6109 18.5713C36.5945 18.4279 36.5641 18.2876 36.5197 18.1505C36.4753 18.0133 36.4179 17.8819 36.3473 17.7564C36.2768 17.6309 36.1945 17.5138 36.1006 17.405C35.5729 16.785 34.7744 16.4938 33.9837 16.4412C32.6389 16.3518 31.2779 16.8322 30.0376 17.3049C30.2019 16.256 30.3432 15.1964 30.59 14.1634C33.0136 12.8458 36.6975 11.5059 37.5614 8.56181C37.5903 8.4647 37.6144 8.36642 37.6338 8.26694C37.6531 8.16744 37.6676 8.06723 37.6773 7.96632C37.6869 7.86541 37.6916 7.76427 37.6914 7.6629C37.6912 7.56149 37.6861 7.46035 37.6761 7.35947C37.6661 7.2586 37.6513 7.15845 37.6315 7.05901C37.6119 6.95961 37.5874 6.86142 37.5581 6.76442C37.5289 6.66743 37.495 6.57212 37.4565 6.4785C37.418 6.38484 37.3751 6.29332 37.3277 6.20394C36.9186 5.44914 36.0543 5.04768 35.2666 4.82335C34.9178 4.72401 34.5074 4.65603 34.1466 4.6859C30.6022 5.57613 27.9662 9.3675 26.171 12.3818C25.5065 13.4977 24.8303 14.7071 24.5076 15.9736C23.7351 19.0057 23.9147 27.1873 24.6576 30.2064C24.9054 31.2133 25.1741 32.3947 26.1118 32.9605C26.2502 33.0439 26.3878 33.0739 26.549 33.0694C27.7455 31.9784 28.9907 30.6346 30.7433 30.7234C31.4055 30.757 31.9563 31.0209 32.3953 31.5241C33.0453 32.2691 33.5042 33.4556 33.4307 34.4481C33.3753 35.1957 33.0281 35.8334 32.4654 36.3148C31.0993 37.4831 28.7897 37.4174 27.1198 37.2739C26.7825 37.2448 26.4526 37.165 26.1299 37.0634ZM52.8675 13.8946C52.7771 13.3368 51.9441 12.6941 51.5057 12.3765C50.1527 11.3965 48.5105 10.7135 46.9539 10.136C47.8048 11.1467 49.4178 12.8269 49.2873 14.2603C49.2606 14.5546 49.1462 14.8092 48.9173 14.9978C47.9068 15.8306 44.453 15.4723 43.1528 15.5212C43.6259 13.8732 44.2255 12.4755 45.2356 11.0795C45.6106 10.5611 46.1979 9.95723 46.4435 9.3842C46.5521 9.13085 46.497 8.85301 46.3689 8.61856C46.1527 8.22279 45.4928 7.87085 45.0626 7.75718C44.7491 7.67437 44.4075 7.61514 44.0838 7.6111C44.0001 7.67706 43.6903 7.87268 43.6536 7.95022C43.5501 8.16873 43.5466 8.52702 43.4813 8.77057C43.3362 9.31086 42.9249 9.8896 42.6134 10.3491C41.5252 11.9541 38.4178 14.1262 38.2056 16.0332C38.1653 16.3965 38.2669 16.7956 38.4945 17.0846C38.6768 17.3161 39.2461 17.3578 39.5369 17.384C41.306 17.543 43.1713 17.364 44.9492 17.3343C47.2472 17.2959 49.7356 17.4847 51.9995 17.077C52.3272 17.018 52.5937 16.8935 52.8471 16.6741C53.2353 16.3379 53.505 15.8947 53.5349 15.3689C53.5626 14.8706 53.3344 14.3989 53.0072 14.0397C52.9622 13.9903 52.9161 13.9404 52.8675 13.8946ZM29.4685 32.6124C29.418 32.6219 29.3682 32.6339 29.319 32.6484C29.2698 32.6629 29.2213 32.6799 29.1737 32.6992C29.1262 32.7185 29.0796 32.7402 29.0342 32.7641C28.9887 32.7881 28.9445 32.8143 28.9016 32.8427C28.8588 32.8711 28.8173 32.9015 28.7774 32.934C28.7375 32.9665 28.6992 33.0009 28.6627 33.0373C28.6261 33.0736 28.5914 33.1116 28.5586 33.1514C28.5257 33.1912 28.4949 33.2325 28.4661 33.2754C28.4373 33.3182 28.4107 33.3624 28.3862 33.4079C28.3618 33.4534 28.3396 33.5 28.3197 33.5478C28.2997 33.5955 28.2822 33.6441 28.267 33.6935C28.2519 33.743 28.2392 33.7931 28.2289 33.8439C28.2186 33.8946 28.2109 33.9457 28.2056 33.9972C28.2004 34.0487 28.1976 34.1004 28.1974 34.1522C28.1972 34.204 28.1995 34.2556 28.2044 34.3072C28.2092 34.3587 28.2166 34.4099 28.2264 34.4607C28.2363 34.5116 28.2486 34.5618 28.2633 34.6113C28.2781 34.6609 28.2952 34.7097 28.3148 34.7575C28.3343 34.8054 28.3561 34.8522 28.3802 34.898C28.4044 34.9437 28.4306 34.988 28.4591 35.0311C28.4875 35.0742 28.518 35.1158 28.5505 35.1558C28.583 35.1959 28.6174 35.2342 28.6537 35.2708C28.6899 35.3075 28.7279 35.3422 28.7676 35.375C28.8072 35.4078 28.8484 35.4386 28.8911 35.4673C28.9337 35.4961 28.9777 35.5226 29.023 35.547C29.0682 35.5713 29.1146 35.5933 29.162 35.6131C29.2094 35.6328 29.2577 35.6501 29.3068 35.6651C29.3559 35.68 29.4057 35.6924 29.456 35.7023C29.5063 35.7123 29.557 35.7197 29.6081 35.7246C29.6591 35.7295 29.7103 35.7319 29.7616 35.7317C29.8129 35.7315 29.864 35.7287 29.9151 35.7234C29.9661 35.7181 30.0167 35.7103 30.067 35.6999C30.1167 35.6897 30.1658 35.677 30.2144 35.6619C30.2629 35.6469 30.3106 35.6294 30.3574 35.6096C30.4042 35.5898 30.45 35.5677 30.4947 35.5434C30.5394 35.5191 30.5828 35.4927 30.6249 35.464C30.6671 35.4354 30.7077 35.4048 30.7469 35.3722C30.7861 35.3396 30.8235 35.3051 30.8594 35.2688C30.8952 35.2325 30.9292 35.1945 30.9614 35.1549C30.9935 35.1152 31.0237 35.074 31.0519 35.0314C31.08 34.9887 31.1061 34.9448 31.13 34.8996C31.1539 34.8543 31.1756 34.8081 31.195 34.7607C31.2145 34.7134 31.2316 34.6652 31.2463 34.6161C31.2611 34.5671 31.2734 34.5174 31.2834 34.4671C31.2933 34.4169 31.3009 34.3662 31.306 34.3152C31.311 34.2642 31.3136 34.2131 31.3137 34.1618C31.3138 34.1106 31.3114 34.0594 31.3066 34.0084C31.3017 33.9574 31.2944 33.9067 31.2847 33.8564C31.2749 33.8061 31.2628 33.7564 31.2482 33.7073C31.2336 33.6582 31.2167 33.6099 31.1975 33.5625C31.1782 33.515 31.1568 33.4687 31.133 33.4233C31.1093 33.378 31.0835 33.334 31.0554 33.2912C31.0275 33.2485 30.9975 33.2072 30.9655 33.1673C30.9335 33.1275 30.8997 33.0894 30.864 33.053C30.8283 33.0165 30.7909 32.9819 30.7519 32.9491C30.7129 32.9163 30.6723 32.8856 30.6303 32.8568C30.5883 32.828 30.545 32.8013 30.5004 32.7769C30.4558 32.7523 30.4101 32.7301 30.3634 32.7101C30.3166 32.6901 30.269 32.6724 30.2206 32.6572C30.1721 32.6418 30.1231 32.6289 30.0734 32.6185C30.0237 32.608 29.9736 32.6001 29.9231 32.5945C29.8726 32.589 29.8219 32.586 29.7712 32.5855C29.7204 32.585 29.6698 32.587 29.6192 32.5915C29.5686 32.5959 29.5184 32.6029 29.4685 32.6124ZM55.6672 21.6984C55.9392 21.1962 56.0229 20.4396 55.8602 19.8858C55.8538 19.8643 55.8471 19.843 55.84 19.8218L55.6394 19.7411C54.8314 20.1875 54.1466 21.0227 53.4554 21.6405C52.096 22.8546 50.0004 23.8983 48.1515 23.3566C47.6257 23.2026 47.3144 23.0507 47.0416 22.5724C47.0003 21.9212 47.4592 21.295 47.7707 20.745C47.4954 19.9702 47.0712 18.2359 46.2928 17.8676C46.1527 17.8012 45.8373 17.8119 45.6735 17.7948C44.6735 19.0138 45.0056 21.2349 45.1493 22.724C45.216 23.4144 45.3984 24.1184 45.9529 24.5739C47.5373 25.8753 50.5415 25.9727 52.5034 25.7495C53.528 25.6329 54.4752 25.2333 55.1264 24.3972C55.5456 23.8592 55.8512 22.7685 55.761 22.0722C55.7466 21.962 55.7189 21.8583 55.6853 21.7527C55.6816 21.7414 55.6789 21.7298 55.6752 21.7185C55.673 21.7117 55.6698 21.7051 55.6672 21.6984ZM15.1712 30.9084C15.3589 32.4542 16.9425 35.629 17.9239 36.8634C18.1978 36.8457 18.4155 36.6328 18.5962 36.4198C18.6154 36.3973 18.6337 36.3741 18.6512 36.3502C19.1911 35.35 19.5284 34.477 19.1903 33.3211C18.94 32.4656 18.3147 31.8113 17.547 31.4019C16.8197 31.0141 15.9824 30.9111 15.1712 30.9084ZM22.8819 32.8534C22.843 32.8603 22.8044 32.8682 22.7659 32.877C22.7275 32.8857 22.6892 32.8955 22.6512 32.9061C22.6132 32.9168 22.5755 32.9284 22.5381 32.9409C22.5006 32.9535 22.4635 32.9669 22.4267 32.9813C22.3899 32.9956 22.3535 33.0109 22.3175 33.027C22.2814 33.0432 22.2458 33.0602 22.2105 33.0781C22.1753 33.096 22.1405 33.1148 22.1062 33.1344C22.0719 33.154 22.038 33.1745 22.0047 33.1958C21.9714 33.2171 21.9386 33.2392 21.9063 33.2621C21.874 33.2849 21.8423 33.3086 21.8112 33.3331C21.7801 33.3575 21.7496 33.3827 21.7197 33.4087C21.6898 33.4347 21.6605 33.4614 21.6319 33.4888C21.6032 33.5161 21.5753 33.5442 21.5481 33.573C21.5208 33.6018 21.4943 33.6312 21.4684 33.6613C21.4426 33.6914 21.4175 33.7221 21.3932 33.7535C21.3688 33.7848 21.3452 33.8167 21.3224 33.8491C21.2995 33.8816 21.2775 33.9147 21.2564 33.9482C21.2351 33.9818 21.2147 34.0159 21.1951 34.0505C21.1756 34.085 21.1568 34.1201 21.139 34.1555C21.1211 34.191 21.1041 34.2269 21.0879 34.2633C21.0718 34.2996 21.0565 34.3363 21.0422 34.3734C21.0278 34.4105 21.0143 34.4479 21.0017 34.4857C20.9892 34.5234 20.9775 34.5615 20.9668 34.5998C20.9561 34.6381 20.9463 34.6767 20.9374 34.7155C20.9286 34.7543 20.9207 34.7933 20.9137 34.8324C20.9067 34.8716 20.9006 34.911 20.8955 34.9505C20.8905 34.9899 20.8864 35.0295 20.8832 35.0692C20.8801 35.1089 20.8778 35.1487 20.8766 35.1885C20.8753 35.2283 20.875 35.2681 20.8757 35.3079C20.8764 35.3477 20.878 35.3875 20.8807 35.4272C20.8833 35.467 20.8868 35.5066 20.8913 35.5462C20.8959 35.5857 20.9013 35.6252 20.9077 35.6645C20.9141 35.7037 20.9215 35.7428 20.9298 35.7818C20.9381 35.8207 20.9474 35.8594 20.9575 35.8979C20.9677 35.9364 20.9788 35.9746 20.9908 36.0125C21.0028 36.0504 21.0158 36.088 21.0296 36.1253C21.0435 36.1626 21.0582 36.1995 21.0738 36.2361C21.0894 36.2727 21.1059 36.3088 21.1233 36.3446C21.1407 36.3803 21.1589 36.4156 21.1779 36.4505C21.197 36.4854 21.217 36.5197 21.2377 36.5536C21.2584 36.5875 21.28 36.6208 21.3023 36.6536C21.3247 36.6864 21.3478 36.7187 21.3717 36.7503C21.3956 36.782 21.4202 36.8131 21.4456 36.8435C21.4711 36.874 21.4972 36.9038 21.524 36.933C21.5509 36.9622 21.5784 36.9907 21.6066 37.0185C21.6348 37.0463 21.6637 37.0734 21.6933 37.0998C21.7228 37.1262 21.7529 37.1519 21.7837 37.1768C21.8145 37.2017 21.8458 37.2258 21.8777 37.2492C21.9097 37.2726 21.9422 37.2952 21.9752 37.3169C22.0082 37.3387 22.0418 37.3596 22.0758 37.3797C22.1098 37.3999 22.1443 37.4191 22.1793 37.4376C22.2143 37.456 22.2497 37.4735 22.2855 37.4902C22.3213 37.5069 22.3575 37.5227 22.3941 37.5376C22.4307 37.5524 22.4676 37.5664 22.5048 37.5795C22.5421 37.5926 22.5797 37.6047 22.6175 37.616C22.6554 37.6272 22.6934 37.6375 22.7318 37.6468C22.7701 37.6562 22.8086 37.6646 22.8474 37.672C22.8861 37.6795 22.925 37.686 22.9641 37.6915C23.0032 37.697 23.0423 37.7016 23.0816 37.7052C23.1209 37.7088 23.1603 37.7115 23.1997 37.7131C23.2391 37.7148 23.2785 37.7155 23.3179 37.7152C23.3574 37.715 23.3968 37.7137 23.4361 37.7115C23.4755 37.7093 23.5148 37.7061 23.5541 37.702C23.5933 37.6978 23.6324 37.6927 23.6714 37.6867C23.7768 37.6702 23.8808 37.6469 23.9832 37.6166C24.0856 37.5863 24.1856 37.5494 24.2832 37.5058C24.3808 37.4622 24.4751 37.4123 24.5662 37.3561C24.6572 37.3 24.7442 37.238 24.8272 37.1703C24.9102 37.1025 24.9884 37.0296 25.0618 36.9514C25.1352 36.8732 25.2032 36.7905 25.2658 36.7033C25.3285 36.616 25.3851 36.525 25.4359 36.4302C25.4866 36.3354 25.5309 36.2377 25.5689 36.137C25.6068 36.0363 25.6381 35.9335 25.6626 35.8287C25.6871 35.7238 25.7047 35.6178 25.7153 35.5106C25.726 35.4034 25.7296 35.296 25.7263 35.1883C25.7229 35.0806 25.7125 34.9737 25.6952 34.8674C25.6778 34.761 25.6536 34.6564 25.6225 34.5533C25.5915 34.4502 25.5539 34.3497 25.5097 34.2516C25.4655 34.1535 25.4151 34.0588 25.3585 33.9674C25.302 33.8761 25.2397 33.7889 25.1718 33.7059C25.1038 33.6228 25.0307 33.5446 24.9526 33.4713C24.8744 33.398 24.7917 33.3301 24.7047 33.2678C24.6176 33.2055 24.5269 33.1492 24.4325 33.099C24.3381 33.0488 24.2408 33.0051 24.1407 32.9678C24.0406 32.9305 23.9385 32.9 23.8344 32.8764C23.7303 32.8527 23.6251 32.836 23.5188 32.8264C23.4125 32.8167 23.3061 32.8142 23.1995 32.8187C23.0929 32.8232 22.987 32.8348 22.8819 32.8534ZM42.3662 17.9391L42.3371 17.9682C41.7706 18.544 41.8659 19.4655 41.5926 20.1861C40.7266 22.4682 36.6714 23.3242 34.5756 23.4218C35.1004 24.2974 35.5555 25.0185 36.3424 25.6775C36.7349 25.9669 37.0298 26.2077 37.5415 26.1298C39.1796 25.8806 41.5844 23.8077 42.5409 22.4729C43.2044 21.5471 43.7551 20.117 43.564 18.9654C43.5133 18.6591 43.3869 18.3504 43.1249 18.1692C42.9162 18.0248 42.6114 17.9834 42.3662 17.9391Z" fill="#1E208A"/>
<path d="M24.727 21.3267C25.9973 21.695 27.5307 21.6003 28.8562 21.7256C28.7686 22.4751 28.7865 23.2467 28.7749 24.0011C27.9397 23.9075 27.0626 23.762 26.2229 23.7721C25.8317 23.7768 25.5916 23.799 25.322 24.0812C25.3474 24.8039 27.6798 26.7545 28.2778 27.334C29.0328 27.9681 29.0673 28.5892 29.2116 29.518C28.0233 29.4777 26.9252 29.719 25.7817 30.0057C24.7189 27.1448 24.6684 24.3309 24.727 21.3267Z" fill="#1E208A"/>
<path d="M29.2115 14.5254L29.4649 14.5344C29.6718 15.0636 29.2253 16.9283 29.1418 17.5813C27.878 18.5329 26.4458 19.3329 25.1379 20.2376L24.9351 20.235L24.8208 20.027C24.8956 18.7685 24.8649 17.1362 25.517 16.017C26.1809 14.8774 28.0342 14.8243 29.2115 14.5254Z" fill="#1E208A"/>
<path d="M142.964 14.836C143.77 14.7582 144.578 14.7432 145.387 14.7908C145.604 14.8029 145.82 14.8204 146.036 14.8433C146.252 14.8662 146.467 14.8945 146.682 14.9282C146.896 14.9619 147.109 15.0009 147.322 15.0453C147.534 15.0898 147.746 15.1395 147.956 15.1945C148.166 15.2495 148.375 15.3098 148.582 15.3753C148.789 15.4408 148.994 15.5114 149.198 15.5872C149.402 15.663 149.603 15.7439 149.803 15.8298C150.002 15.9157 150.2 16.0066 150.395 16.1024C150.59 16.1982 150.783 16.2989 150.973 16.4044C151.164 16.5099 151.351 16.6201 151.535 16.735C151.72 16.8499 151.902 16.9694 152.081 17.0934C152.26 17.2174 152.436 17.3459 152.608 17.4787C152.781 17.6116 152.95 17.7487 153.116 17.89C153.282 18.0314 153.444 18.1768 153.603 18.3262C153.762 18.4758 153.917 18.6291 154.068 18.7864C154.219 18.9436 154.366 19.1046 154.509 19.2693C156.862 21.9613 158.031 25.7115 157.798 29.2869C157.58 32.6109 155.933 36.0073 153.448 38.2049C150.335 40.9579 146.718 41.7608 142.699 41.486C138.576 40.816 137.666 39.4352 134.497 37.3766C135.261 37.1574 136.075 36.937 136.555 36.2362C136.775 35.9149 136.842 35.5203 136.77 35.1393C136.668 34.5939 136.309 33.7806 135.837 33.4668C134.662 32.6864 133.865 34.434 132.936 34.6376C132.919 34.6263 132.902 34.615 132.886 34.6029C131.867 33.8381 131.371 30.8262 131.218 29.6286C130.775 26.1519 131.739 22.7308 133.863 19.9597C136.132 17.0004 139.327 15.3073 142.964 14.836ZM149.614 38.4966C150.135 38.0927 151.003 37.0419 151.109 36.3674C151.122 36.2853 151.112 36.1976 151.093 36.1173C151.132 36.0354 151.258 35.8424 151.265 35.762C151.3 35.3655 150.913 34.4814 150.827 34.0571C150.653 33.2041 150.572 31.0699 150.37 30.491C150.339 30.402 150.293 30.3143 150.244 30.2345C151.562 29.8723 154.665 30.2694 155.368 29.0426C155.964 28.0038 156.352 25.3345 156.035 24.1782C155.926 23.7815 155.687 23.6011 155.34 23.4092C154.355 22.8636 153.014 23.0132 151.927 23.048C151.136 23.1229 149.322 23.0868 148.792 23.7103C148.466 24.6977 149.005 29.4838 148.956 31.0701C148.923 32.0999 148.307 36.7726 148.64 37.438C148.847 37.8513 149.446 38.0663 149.614 38.4966ZM138.692 35.0803C138.219 34.8501 137.744 34.5895 137.226 34.4838C137.877 35.355 138.277 37.4453 139.514 37.6218C140.413 37.7501 141.624 36.9783 142.309 36.449C143.328 35.6607 143.852 34.672 144.019 33.3916C144.24 31.6854 143.643 26.0103 144.687 25.073C145.262 24.9989 146.045 25.3371 146.554 25.5968C146.883 25.1574 147.398 24.5445 147.314 23.9684C147.303 23.9015 147.124 23.7273 147.072 23.6676C146.382 23.345 145.456 23.4541 144.706 23.4519C142.876 23.4931 139.055 23.0917 137.766 24.4637C137.525 24.7205 137.32 25.0317 137.344 25.3997C137.36 25.6512 137.555 25.8962 137.74 26.0523C137.854 26.1487 138.213 26.3938 138.357 26.3774C138.397 26.3729 138.437 26.3657 138.476 26.359C139.463 26.1886 140.657 24.2145 141.793 25.0258C142.45 25.4948 142.682 26.8937 142.8 27.6422C143.091 29.4833 143.176 32.4758 142.044 34.0484C141.99 34.1236 141.933 34.1959 141.871 34.2654C141.811 34.3349 141.746 34.4011 141.679 34.464C141.611 34.527 141.541 34.5864 141.468 34.6423C141.394 34.6981 141.318 34.7502 141.239 34.7983C141.161 34.8465 141.08 34.8906 140.997 34.9306C140.914 34.9707 140.83 35.0064 140.743 35.0379C140.656 35.0694 140.569 35.0964 140.48 35.119C140.391 35.1416 140.301 35.1597 140.21 35.1732C139.72 35.2442 139.174 35.1868 138.692 35.0803Z" fill="#1E208A"/>
<path d="M151.224 24.2598C151.571 24.2687 151.919 24.2795 152.266 24.3083C152.886 24.3598 153.674 24.5679 154.084 25.0678C154.342 25.3831 154.459 25.7718 154.424 26.1756C154.435 26.2332 154.443 26.2914 154.448 26.3501C154.483 26.7993 154.275 27.2312 153.994 27.5634C153.732 27.9543 153.256 28.175 152.837 28.3415C152.819 28.3621 152.8 28.3829 152.779 28.3997C152.06 28.9563 150.996 28.6598 150.19 28.5243C150.683 27.3943 149.608 25.8279 150.269 24.5981C150.619 24.3278 150.782 24.3216 151.224 24.2598Z" fill="#1E208A"/>
<path d="M113.908 10.7983C116.501 10.6685 126.973 10.1941 128.596 11.4916C129.008 11.8204 129.234 12.2689 129.293 12.7929C129.469 14.3555 128.706 17.396 127.741 18.6042C126.632 19.0163 122.146 18.4596 120.653 18.4299C118.803 18.3932 116.915 18.3567 115.069 18.4923C111.722 18.7383 108.483 19.2392 105.114 19.0715C105.759 20.2981 105.32 29.2593 105.04 30.9889C104.798 32.4916 103.981 36.6071 102.818 37.4519C102.841 37.5982 102.802 37.7279 102.747 37.8623C102.096 39.4671 100.176 41.2653 98.6069 41.9354C98.4688 41.6933 96.088 40.1499 95.6837 39.8213C95.0602 39.3146 94.5989 38.692 93.9946 38.1807C96.6213 37.1088 98.3866 36.6707 100.364 34.3892C101.198 33.4277 101.899 32.3305 102.297 31.1115C103.135 28.5435 103.135 22.6302 102.236 20.0807C101.684 18.5158 100.024 15.7959 99.944 14.315C99.9152 13.7831 100.191 13.2659 100.541 12.8862C102.933 10.2834 110.46 10.918 113.908 10.7983ZM118.5 16.2163C119.321 16.198 125.228 16.2089 125.534 15.8847C125.941 15.4522 125.908 14.5609 125.885 13.9981C125.874 13.7064 125.832 13.4286 125.692 13.1695C121.74 12.5857 115.54 12.8503 111.389 12.9518C110.168 13.0272 105.925 13.0061 105.155 13.8637C105.122 13.9007 105.09 13.9411 105.06 13.9806C104.602 14.5838 105.356 15.9983 104.881 16.8238C109.433 16.3198 113.926 16.2355 118.5 16.2163Z" fill="#1E208A"/>
<path d="M107.524 20.6248C108.808 20.4771 110.033 21.0554 111.312 21.1383C113.594 21.2861 115.931 21.0873 118.219 21.0849C120.449 21.0825 122.73 21.3289 124.948 21.0643C125.561 20.9912 126.053 20.8426 126.581 20.5103C126.958 20.6674 127.349 20.895 127.644 21.1817C128.003 21.5314 128.361 22.041 128.366 22.5651C128.369 22.8409 128.256 23.0832 128.063 23.2758C127.785 23.5533 127.291 23.7825 126.901 23.8098C124.941 23.9473 122.791 23.32 120.834 23.1003C119.205 22.9175 117.519 22.9779 115.881 22.9736C116.137 23.9654 114.492 25.361 114.084 26.1881C113.958 26.4435 113.949 26.5523 114.038 26.8169C114.131 26.8984 114.235 26.9591 114.351 26.9991C115.044 27.2352 120.946 26.9946 121.578 26.6663C121.883 25.6625 120.817 24.7391 120.685 23.7453L120.833 23.5688C120.855 23.5676 120.876 23.5668 120.898 23.5666C122.387 23.5616 124.362 25.1668 125.347 26.1705C125.789 26.622 126.423 27.3074 126.412 27.9797C126.408 28.211 126.324 28.4286 126.151 28.5884C125.779 28.9346 125.067 29.0456 124.571 29.0791C123.507 29.1513 122.389 28.9247 121.325 28.8524C119.798 28.7486 118.26 28.7338 116.73 28.6509C117.549 28.9575 118.567 29.3053 119.066 30.0844C119.231 30.3418 119.294 30.6332 119.223 30.9337C119.058 31.6431 118.308 32.0516 117.741 32.4033C118.95 32.4125 120.356 32.5038 121.525 32.18C122.527 31.9025 123.534 31.3455 124.567 31.2287C124.942 31.1863 125.4 31.1991 125.703 31.4562C125.988 31.6973 126.111 32.0725 126.143 32.4353C126.214 33.2286 126.137 34.3725 125.619 35.0059C123.09 34.9201 120.585 34.5883 118.044 34.5477C118.089 34.6424 118.127 34.7402 118.157 34.8411C118.389 35.6006 118.361 37.1761 117.983 37.8942C119.973 38.005 121.986 37.9792 123.966 38.2114C124.95 38.231 125.842 37.8755 126.779 37.6202C127.353 37.4641 128.151 37.2928 128.693 37.6188C128.931 37.7621 129.078 38.0132 129.145 38.279C129.309 38.9299 129.2 40.1439 128.847 40.7278C128.389 41.4858 127.647 41.1618 126.966 40.9646C121.915 39.5018 111.963 39.6458 106.847 40.9179C106.165 41.0875 105.474 41.3124 104.826 40.9174C104.526 40.5988 104.399 40.2692 104.351 39.8325C104.285 39.222 104.277 38.3628 104.68 37.8679C104.971 37.5115 105.405 37.4247 105.841 37.4309C106.905 37.4458 107.923 38.0581 108.974 38.1878C110.54 38.381 113.647 38.021 115.317 37.8748C115.327 37.8486 115.336 37.8221 115.344 37.7953C115.53 37.1776 115.542 35.1152 115.244 34.546C114.596 34.634 113.884 34.5666 113.225 34.6136C111.734 34.7198 110.236 34.9254 108.742 34.9601C108.585 34.9638 108.054 34.9677 107.957 34.8709C107.501 34.4202 107.461 33.5691 107.459 32.9566C107.457 32.4738 107.521 31.873 107.878 31.5176C108.685 30.7148 111.819 32.0932 112.895 32.2853C113.703 32.4296 114.552 32.3974 115.371 32.3945C115.222 31.7552 114.456 31.4548 114.275 30.7016C114.342 29.8039 115.217 29.6643 115.657 29.0136C115.662 29.0053 115.668 28.9969 115.674 28.9886C114.345 29.1103 113.02 29.2725 111.701 29.4753C111.046 29.5757 110.414 29.7703 109.751 29.8044C109.203 29.6106 108.534 29.1652 108.279 28.6215C107.371 26.6812 112.463 24.8763 113.028 23.2645C113.031 23.2548 113.034 23.2449 113.037 23.2352C111.998 23.4912 107.497 24.095 106.546 24.0218C106.295 23.9096 106.144 23.7122 106.027 23.4676C105.852 23.1028 105.907 22.6547 106.04 22.286C106.348 21.4348 106.716 21.0085 107.524 20.6248Z" fill="#1E208A"/>
<path d="M77.6693 11.471C80.6266 11.3577 93.8352 11.0281 95.7648 11.6754C96.0549 11.7727 96.0944 11.9287 96.2234 12.1789C96.2458 12.9765 95.713 14.5401 95.1488 15.1326C94.2112 16.1167 92.8149 14.4011 91.736 14.4366C90.9994 14.4608 90.5189 15.1381 90.32 15.7885C89.9109 17.1251 90.0469 18.8337 90.0421 20.2286C90.0309 23.6635 90.3893 31.4578 89.6096 34.5294C89.516 34.8878 89.4005 35.239 89.2629 35.5827C89.1253 35.9265 88.9671 36.2602 88.7882 36.5838C88.609 36.9075 88.4106 37.2186 88.193 37.517C87.9751 37.8155 87.7395 38.0989 87.4864 38.3674C85.641 40.3147 82.7397 41.3647 80.105 41.4211C79.7472 40.9255 78.8426 40.6124 78.401 40.0349C77.8394 39.2995 77.6757 38.2337 77.0069 37.5843C77.2106 36.9236 76.6021 36.2925 76.8928 35.5662C77.2016 35.4766 80.1813 36.8441 82.4288 36.3182C82.5916 36.2813 82.7523 36.2363 82.9109 36.1831C83.0691 36.13 83.2245 36.0691 83.377 36.0003C83.5292 35.9315 83.6778 35.8552 83.8229 35.7714C83.9676 35.6876 84.1079 35.5967 84.2437 35.4987C84.3795 35.4008 84.5102 35.2962 84.6357 35.1851C84.7612 35.0739 84.8808 34.9568 84.9946 34.8336C85.1084 34.7103 85.216 34.5817 85.3173 34.4477C85.4183 34.3136 85.5125 34.1748 85.6 34.0312C87.5354 30.8766 87.6922 21.9484 86.8202 18.2489C86.4624 16.7291 85.6885 14.8206 84.3018 13.9714C82.1824 12.6731 76.8912 14.178 74.8858 15.1866C73.6437 15.8115 72.289 17.003 70.9616 17.3243C70.7365 17.2304 70.5029 17.1276 70.3114 16.9732C69.7162 16.493 69.3776 15.7792 69.3072 15.0187C69.2421 14.3193 69.4181 13.6465 69.8688 13.1046C71.3664 11.3023 75.4874 11.6575 77.6693 11.471Z" fill="#1E208A"/>
<path d="M77.1978 17.5302C77.8165 17.4713 78.4364 17.4317 79.0576 17.4116C80.3824 17.3771 82.2816 17.5967 83.2864 18.5778C83.6432 18.9267 83.8405 19.3715 83.8378 19.8747C83.8325 20.8331 83.5381 21.8619 83.4256 22.8218C83.2965 23.9212 83.3482 25.1294 83.0928 26.201C82.9648 26.7359 82.7349 27.4157 82.3392 27.8053C81.6576 28.5205 78.8469 28.4037 77.904 28.4328C76.6144 28.4722 74.9344 28.9946 73.705 28.6639C73.3877 28.3929 73.2586 27.9485 73.1424 27.5591C72.617 25.8029 71.3541 20.2635 72.2224 18.6245C73.4528 17.5026 75.6464 17.739 77.1978 17.5302ZM75.104 26.4694C75.7738 26.3452 77.2896 26.0651 77.7178 25.4752C77.7386 25.447 77.7557 25.4168 77.7717 25.3858C78.712 25.0035 80.3994 23.7576 80.7978 22.8077C80.8517 22.6794 80.8672 22.5501 80.8666 22.4116C80.8666 22.3994 80.8666 22.3873 80.8666 22.3752C80.8666 22.3454 80.8656 22.3457 80.8618 22.3122C80.8512 21.6782 80.3317 21.0364 79.896 20.6123C79.5616 20.2872 79.1162 19.9191 78.672 19.7726C77.8933 19.7713 77.1104 19.754 76.3338 19.8168C75.8304 19.8776 74.8794 19.8723 74.513 20.2204C73.9621 21.6889 75.496 25.1015 75.104 26.4694Z" fill="#1E208A"/>
<path d="M7.19309 23.2919C7.2802 23.2761 7.36765 23.2624 7.45544 23.2508C7.54326 23.2393 7.6313 23.23 7.71955 23.2229C7.80779 23.2158 7.89615 23.2108 7.98461 23.2081C8.07311 23.2054 8.16161 23.2048 8.25011 23.2065C8.33864 23.2082 8.42707 23.2121 8.51539 23.2182C8.60371 23.2243 8.69183 23.2326 8.77976 23.2431C8.86765 23.2536 8.95526 23.2662 9.04259 23.2811C9.12987 23.296 9.21675 23.313 9.30323 23.3322C9.3897 23.3514 9.47564 23.3727 9.56104 23.3961C9.64648 23.4196 9.73128 23.4452 9.81544 23.4729C9.8996 23.5006 9.98305 23.5303 10.0658 23.5622C10.1485 23.5941 10.2304 23.628 10.3114 23.6639C10.3925 23.6998 10.4726 23.7378 10.5519 23.7777C10.631 23.8176 10.7092 23.8595 10.7864 23.9033C10.8635 23.9471 10.9396 23.9928 11.0145 24.0404C11.0894 24.0881 11.1632 24.1375 11.2357 24.1888C11.3081 24.2401 11.3793 24.2932 11.4493 24.348C11.5192 24.4028 11.5877 24.4594 11.6549 24.5176C11.722 24.5759 11.7877 24.6358 11.8519 24.6973C11.9161 24.7588 11.9788 24.8219 12.0399 24.8866C12.101 24.9512 12.1605 25.0174 12.2184 25.085C12.2763 25.1526 12.3326 25.2216 12.3871 25.292C12.4416 25.3624 12.4944 25.4342 12.5454 25.5072C12.5964 25.5803 12.6456 25.6545 12.693 25.73C12.7404 25.8056 12.7859 25.8822 12.8295 25.96C12.8731 26.0377 12.9149 26.1165 12.9546 26.1964C12.9944 26.2762 13.0322 26.357 13.0681 26.4388C13.1039 26.5205 13.1377 26.6031 13.1695 26.6864C13.2013 26.7699 13.231 26.854 13.2587 26.9389C13.2864 27.0238 13.312 27.1094 13.3355 27.1956C13.359 27.2817 13.3804 27.3684 13.3996 27.4557C13.4189 27.5429 13.436 27.6306 13.451 27.7187C13.4659 27.8068 13.4787 27.8952 13.4894 27.9839C13.5 28.0727 13.5085 28.1616 13.5148 28.2507C13.5211 28.3399 13.5252 28.4292 13.5272 28.5185C13.5291 28.6079 13.5288 28.6972 13.5264 28.7866C13.524 28.8759 13.5193 28.9651 13.5126 29.0543C13.5058 29.1434 13.4968 29.2323 13.4856 29.321C13.4745 29.4096 13.4612 29.498 13.4457 29.586C13.4303 29.674 13.4127 29.7615 13.3929 29.8487C13.3732 29.9358 13.3513 30.0224 13.3273 30.1084C13.3034 30.1945 13.2773 30.2799 13.2491 30.3646C13.221 30.4493 13.1908 30.5333 13.1585 30.6166C13.1262 30.6998 13.092 30.7822 13.0557 30.8637C13.0194 30.9452 12.9811 31.0258 12.9409 31.1054C12.9007 31.1851 12.8585 31.2636 12.8145 31.3411C12.7704 31.4187 12.7244 31.495 12.6766 31.5702C12.6288 31.6455 12.5792 31.7195 12.5278 31.7922C12.4764 31.865 12.4232 31.9364 12.3683 32.0065C12.3134 32.0766 12.2568 32.1453 12.1985 32.2126C12.1402 32.2799 12.0803 32.3457 12.0189 32.41C11.9573 32.4743 11.8943 32.537 11.8298 32.5982C11.7652 32.6593 11.6992 32.7189 11.6317 32.7767C11.5643 32.8346 11.4954 32.8907 11.4252 32.9452C11.355 32.9996 11.2835 33.0523 11.2107 33.1031C11.1379 33.154 11.0639 33.2031 10.9887 33.2502C10.9135 33.2974 10.8372 33.3427 10.7598 33.3861C10.6824 33.4295 10.604 33.4709 10.5246 33.5104C10.4452 33.5499 10.3648 33.5873 10.2835 33.6228C10.2023 33.6583 10.1202 33.6917 10.0373 33.7231C9.95443 33.7544 9.87082 33.7837 9.78648 33.811C9.70218 33.8382 9.61725 33.8633 9.53171 33.8863C9.44612 33.9092 9.36004 33.9301 9.27347 33.9488C9.18692 33.9675 9.09995 33.984 9.01256 33.9983C8.92612 34.0125 8.8394 34.0246 8.7524 34.0345C8.66539 34.0444 8.57819 34.0522 8.4908 34.0578C8.40344 34.0635 8.31597 34.0669 8.2284 34.0682C8.14086 34.0695 8.05332 34.0687 7.96579 34.0657C7.87828 34.0627 7.79091 34.0575 7.70365 34.0502C7.6164 34.0429 7.52936 34.0335 7.44253 34.0219C7.35574 34.0103 7.26927 33.9965 7.18312 33.9807C7.09697 33.9648 7.01126 33.9468 6.926 33.9267C6.84074 33.9066 6.75601 33.8845 6.67181 33.8602C6.58762 33.8359 6.50404 33.8096 6.42109 33.7812C6.33818 33.7528 6.25599 33.7224 6.17453 33.6899C6.09307 33.6575 6.01245 33.6231 5.93267 33.5867C5.85288 33.5503 5.77402 33.5119 5.69608 33.4717C5.61814 33.4313 5.54123 33.3891 5.46536 33.3451C5.38945 33.3009 5.31466 33.255 5.241 33.2072C5.16732 33.1594 5.09485 33.1099 5.02357 33.0585C4.9523 33.0072 4.8823 32.9541 4.81359 32.8993C4.74489 32.8445 4.67754 32.788 4.61157 32.7299C4.54559 32.6718 4.48105 32.6121 4.41796 32.5508C4.35487 32.4895 4.2933 32.4267 4.23325 32.3623C4.17319 32.298 4.11473 32.2322 4.05786 32.165C4.00099 32.0978 3.94578 32.0292 3.89222 31.9592C3.83867 31.8893 3.78684 31.8181 3.73673 31.7456C3.68662 31.6731 3.63829 31.5994 3.59174 31.5245C3.5452 31.4496 3.50049 31.3737 3.45762 31.2966C3.41475 31.2195 3.37376 31.1414 3.33467 31.0623C3.29557 30.9832 3.25841 30.9032 3.22319 30.8223C3.18796 30.7413 3.15472 30.6596 3.12344 30.577C3.09218 30.4944 3.06292 30.4111 3.03568 30.3271C3.00844 30.2431 2.98324 30.1584 2.96009 30.0732C2.93694 29.9879 2.91586 29.9021 2.89686 29.8158C2.87786 29.7295 2.86096 29.6428 2.84615 29.5557C2.83135 29.4686 2.81866 29.3811 2.80808 29.2934C2.7975 29.2056 2.78905 29.1177 2.78272 29.0295C2.7764 28.9413 2.77221 28.853 2.77016 28.7646C2.7681 28.6763 2.76819 28.5879 2.7704 28.4995C2.77263 28.4111 2.77698 28.3229 2.78347 28.2347C2.78996 28.1465 2.79858 28.0586 2.80932 27.9708C2.82006 27.8831 2.83291 27.7957 2.84788 27.7086C2.86285 27.6215 2.87992 27.5348 2.89908 27.4485C2.91824 27.3623 2.93948 27.2765 2.96279 27.1914C2.9861 27.1061 3.01145 27.0216 3.03885 26.9376C3.06625 26.8536 3.09566 26.7704 3.12709 26.6878C3.15851 26.6054 3.19191 26.5237 3.22728 26.4428C3.26266 26.3619 3.29997 26.282 3.33922 26.203C3.37845 26.1239 3.41958 26.0459 3.4626 25.9689C3.50562 25.8919 3.55047 25.816 3.59715 25.7412C3.64384 25.6664 3.6923 25.5928 3.74255 25.5204C3.79279 25.448 3.84476 25.3769 3.89844 25.3071C3.95213 25.2372 4.00747 25.1687 4.06446 25.1016C4.12146 25.0345 4.18004 24.9688 4.24021 24.9046C4.30039 24.8404 4.36208 24.7777 4.42528 24.7165C4.48848 24.6553 4.55313 24.5957 4.61922 24.5378C4.6853 24.4798 4.75275 24.4234 4.82156 24.3687C4.89037 24.3141 4.96046 24.2611 5.03183 24.21C5.1032 24.1587 5.17577 24.1093 5.24953 24.0617C5.3233 24.014 5.39818 23.9682 5.47416 23.9243C5.55011 23.8803 5.62708 23.8383 5.70509 23.7981C5.7831 23.758 5.86203 23.7198 5.94189 23.6835C6.02175 23.6472 6.10244 23.613 6.18397 23.5807C6.2655 23.5484 6.34774 23.5181 6.43069 23.4899C6.51368 23.4617 6.59731 23.4355 6.68157 23.4114C6.7658 23.3873 6.85057 23.3653 6.93587 23.3454C7.02116 23.3254 7.10691 23.3076 7.19309 23.2919Z" fill="#1E208A"/>
<path d="M68.4474 31.1235C68.4933 31.1298 68.5264 31.1371 68.5674 31.1586C68.6496 31.2013 68.769 31.2411 68.7952 31.3328C69.1712 32.651 67.28 36.3016 66.5658 37.5674C65.8245 38.8806 64.9674 40.3668 63.4208 40.7884C62.3568 41.0785 61.5221 40.8171 60.5946 40.2768C60.104 39.5473 59.7488 38.8598 59.7674 37.955C59.7808 37.2896 59.9936 36.7016 60.4784 36.2376C61.4309 35.326 62.6725 35.3261 63.8992 35.3595C65.7952 34.7839 67.1477 32.5238 68.4474 31.1235Z" fill="#1E208A"/>
<path d="M62.2848 11.3364C62.3542 11.3353 62.4235 11.3362 62.4928 11.3391C64.2752 11.4138 65.9728 12.9895 67.1072 14.2403C67.5142 14.6888 68.2966 15.5673 68.2523 16.2142C68.239 16.4058 68.1542 16.4322 68.0171 16.5522C67.4587 16.6349 66.5894 16.2654 66.0256 16.1252C64.5867 15.6 63 16.949 61.5398 16.207C60.9718 15.9183 60.584 15.4586 60.3878 14.8479C60.1531 14.1175 60.2619 13.2986 60.6086 12.6227C60.984 11.8903 61.5414 11.5736 62.2848 11.3364Z" fill="#1E208A"/>
<path d="M61.4976 21.5668C62.6757 21.4254 63.7989 22.1695 64.7589 22.777C65.672 23.3549 67.9781 24.7225 68.208 25.7349C67.2181 25.8943 66.0757 25.7916 65.0683 25.816C64.0272 26.0708 63.0357 26.3914 62.0278 26.7546C61.9883 26.7406 61.949 26.7264 61.9099 26.7119C61.0005 26.3761 60.2181 25.9748 59.7947 25.0291C59.5371 24.454 59.5328 23.8339 59.7563 23.2476C60.0768 22.4061 60.7131 21.9165 61.4976 21.5668Z" fill="#1E208A"/>
<path d="M44.2052 29.4908C45.0597 29.4269 46.7355 29.1675 47.4964 29.5464C47.7535 29.6743 47.7731 29.8042 47.8621 30.058C47.7407 31.157 46.7988 32.4209 46.2492 33.3699C46.2411 33.3872 46.2335 33.4048 46.2242 33.4216C46.0537 33.7286 45.9343 33.9141 45.6031 34.008C45.5328 33.9773 45.465 33.9424 45.4006 33.9005C44.4387 33.2746 43.739 30.9311 43.5131 29.8484C43.6946 29.5783 43.901 29.5822 44.2052 29.4908Z" fill="#1E208A"/>
</svg>
