<svg width="160" height="80" viewBox="0 0 160 80" fill="none" xmlns="http://www.w3.org/2000/svg">
<path d="M0 8C0 3.58172 3.58172 0 8 0H152C156.418 0 160 3.58172 160 8V72C160 76.4183 156.418 80 152 80H8C3.58172 80 0 76.4183 0 72V8Z" fill="#E9173D"/>
<g clip-path="url(#clip0_242_2723)">
<path d="M111.926 21.1488C115.064 20.8822 118.91 21.0456 121.497 23.0796C122.647 23.9836 123.472 25.1906 123.646 26.6701C123.668 26.8496 123.681 27.0298 123.686 27.2107C123.69 27.3916 123.685 27.5722 123.671 27.7526C123.658 27.933 123.635 28.1123 123.604 28.2905C123.572 28.4686 123.532 28.6447 123.483 28.8189C123.434 28.993 123.376 29.1643 123.31 29.3327C123.244 29.5011 123.17 29.6658 123.087 29.8268C123.005 29.9878 122.914 30.1443 122.816 30.2963C122.718 30.4484 122.613 30.5951 122.5 30.7366C120.921 32.7233 118.076 33.4065 115.683 33.6798C112.622 33.8547 108.924 33.5988 106.411 31.6259C105.256 30.7182 104.478 29.4912 104.304 28.0168C104.138 26.6116 104.553 25.0944 105.435 23.9852C106.983 22.0378 109.58 21.4212 111.926 21.1488ZM114.306 31.899C116.128 31.7362 118.006 31.2369 119.23 29.769C119.861 29.0127 120.248 28.0175 120.155 27.0252C120.057 25.9733 119.471 25.008 118.666 24.3425C117.34 23.2468 115.284 22.7109 113.579 22.8741C113.521 22.8797 113.462 22.8867 113.404 22.895C111.631 23.0979 109.767 23.5709 108.602 25.0437C108.528 25.1395 108.458 25.2388 108.393 25.3414C108.329 25.444 108.27 25.5496 108.215 25.658C108.161 25.7665 108.112 25.8773 108.069 25.9906C108.025 26.1038 107.988 26.2189 107.956 26.3358C107.923 26.4528 107.897 26.571 107.877 26.6905C107.856 26.81 107.842 26.9302 107.833 27.0512C107.824 27.1721 107.821 27.2932 107.824 27.4144C107.827 27.5357 107.836 27.6564 107.851 27.7768C107.979 28.8667 108.633 29.7772 109.481 30.4411C110.704 31.399 112.694 32.0985 114.253 31.9066C114.271 31.9045 114.288 31.902 114.306 31.899Z" fill="white"/>
<path d="M93.2113 22.9869C96.0257 22.7278 99.358 22.975 101.691 24.7313C102.728 25.5124 103.528 26.678 103.709 27.979C103.734 28.1464 103.75 28.3145 103.759 28.4835C103.767 28.6525 103.767 28.8214 103.758 28.9904C103.749 29.1593 103.733 29.3274 103.707 29.4947C103.682 29.6619 103.648 29.8275 103.607 29.9915C103.565 30.1554 103.515 30.3169 103.457 30.4758C103.399 30.6348 103.334 30.7906 103.261 30.9431C103.188 31.0956 103.107 31.244 103.019 31.3885C102.931 31.533 102.836 31.6728 102.734 31.8078C101.247 33.7696 98.6819 34.3648 96.3816 34.6834L96.3683 34.6852C93.6856 35.0226 90.3102 34.4336 88.1264 32.767C87.0183 31.9214 86.2812 30.7606 86.0974 29.3644C85.929 28.0879 86.3529 26.6317 87.1393 25.615C88.6169 23.7049 90.9617 23.2712 93.2113 22.9869ZM96.0871 32.9137C97.4536 32.7214 98.9602 32.136 99.8161 31.0052C99.8867 30.9115 99.9527 30.8146 100.014 30.7144C100.075 30.6143 100.131 30.5114 100.183 30.4058C100.234 30.3001 100.28 30.1923 100.32 30.0822C100.361 29.972 100.396 29.8602 100.426 29.7466C100.456 29.6331 100.48 29.5184 100.498 29.4025C100.517 29.2866 100.53 29.1701 100.537 29.0529C100.544 28.9357 100.546 28.8185 100.541 28.7012C100.537 28.5839 100.527 28.4671 100.511 28.3508C100.367 27.315 99.7768 26.4114 98.9474 25.7877C97.4194 24.6387 95.3161 24.4989 93.483 24.7333C92.008 25.0992 90.579 25.6093 89.7518 26.9908C89.2573 27.8164 89.143 28.8058 89.3772 29.734C89.643 30.7869 90.3643 31.5546 91.2805 32.0975C92.5051 32.823 94.5496 33.3155 95.958 32.9511C96.0014 32.94 96.0444 32.9275 96.0871 32.9137Z" fill="white"/>
<path d="M78.0584 21.5164C79.1238 21.3544 85.0088 21.3514 86.0944 21.5045C86.1827 21.5169 86.1952 21.5649 86.2474 21.6341C86.2433 21.899 86.2518 22.3385 86.0544 22.5362C85.6018 22.9889 84.1242 22.9476 83.5132 22.9546C83.5482 23.0106 83.5757 23.07 83.5955 23.133C83.7794 23.7067 83.7525 32.1458 83.54 32.5623C84.3613 32.6009 85.2933 32.6039 86.0753 32.8863C86.1404 32.9723 86.1885 33.0617 86.2238 33.1638C86.3235 33.4538 86.3253 33.6862 86.1922 33.9589C85.59 34.1542 78.9481 34.1425 78.2514 33.964C78.1345 33.8514 78.0676 33.8097 78.0477 33.6399C78.0246 33.4407 78.1308 33.2092 78.2547 33.0579C78.6455 32.5812 79.8632 32.6464 80.4522 32.5852C80.4702 32.5357 80.4849 32.4857 80.4988 32.435C80.618 32.0023 80.5584 29.2122 80.3341 28.8111C77.8216 28.9121 75.2889 29.1292 72.7797 29.1745C72.8492 29.2752 72.9286 29.3981 72.961 29.5163C73.1172 30.092 73.147 32.0522 72.8676 32.5399C73.8624 32.5372 74.8529 32.6507 75.8422 32.7464C76.0408 33.1533 76.0022 33.595 75.9503 34.03C75.7099 34.125 75.1091 34.0393 74.8297 34.035C72.0871 34.0639 69.3393 33.9812 66.598 34.0628C66.8408 33.7221 66.7002 33.3023 66.8466 32.9158C67.4198 32.4958 69.0205 32.5837 69.7463 32.5448C69.7764 32.5065 69.8029 32.4625 69.8169 32.4155C69.9749 31.8887 69.922 24.7605 69.7136 24.3479C68.6886 24.3963 67.6522 24.2181 66.6142 24.2676C66.6483 24.2023 66.6721 24.1328 66.6921 24.0621C66.7981 23.6888 66.7738 23.2811 66.5827 22.9414L76.2562 22.9444C76.297 23.0311 76.3338 23.1224 76.3525 23.2165C76.3977 23.4415 76.3496 23.7675 76.2246 23.9583C75.122 24.3332 73.9996 24.4281 72.8437 24.4094C72.8459 24.4134 72.8481 24.4174 72.8503 24.4216C72.854 24.4285 72.8569 24.4356 72.8602 24.4425C72.8687 24.4596 72.8779 24.4761 72.8863 24.4933C73.1635 25.0728 73.1147 26.7727 72.9062 27.3639C75.3966 27.3276 77.9209 27.2758 80.4088 27.3806C80.4497 27.3146 80.4825 27.2448 80.5073 27.1711C80.647 26.7433 80.5507 23.3012 80.3764 22.9569C79.829 22.8702 78.7926 22.9263 78.3694 22.567C78.0716 22.3145 78.0919 21.8771 78.0584 21.5164Z" fill="white"/>
<path d="M55.7358 25.5567C56.7097 25.4414 57.7681 25.5 58.7489 25.5016C60.6723 25.5189 62.5957 25.518 64.519 25.4988C64.5526 25.5744 64.5812 25.6541 64.5946 25.736C64.6345 25.9799 64.5512 26.3031 64.4109 26.5009C63.8179 26.7701 63.1278 26.8597 62.4845 26.9206C62.5379 26.963 62.587 27.0099 62.6318 27.0614C62.909 27.3775 65.8096 34.4037 66.1282 35.279C66.1834 35.4308 66.2021 35.5804 66.1919 35.7418C67.0316 35.8289 68.007 35.9512 68.7695 36.3279C68.8963 36.3906 68.9298 36.4202 68.9739 36.5583C69.0493 36.7949 69.0191 37.0188 68.9118 37.2314C67.9088 37.5962 61.9124 37.3192 60.3797 37.3822C60.3886 37.3674 60.3971 37.3528 60.4048 37.3374C60.5928 36.9614 60.5342 36.4482 60.406 36.0633C61.0651 35.9991 62.0697 36.1162 62.6568 35.8179L62.5947 35.5822C62.5579 35.0781 61.708 32.7697 61.4134 32.3867C60.0364 32.5549 58.6257 32.4808 57.2392 32.5925C57.2441 32.6171 57.2479 32.6418 57.2488 32.6669C57.266 33.1212 56.4674 34.2902 56.1559 34.6205C56.8706 34.692 57.4941 34.7724 58.1788 34.9934C58.2148 35.04 58.2368 35.0893 58.2561 35.1446C58.3796 35.4967 58.3447 35.8598 58.184 36.1914C57.3585 36.2342 51.7557 36.39 51.4378 36.162C51.3602 36.1064 51.353 36.0777 51.339 35.9852C51.2968 35.7067 51.3308 35.3868 51.5056 35.1564C51.9525 34.5671 53.2793 34.5428 53.9737 34.4431C54.519 33.7181 57.7561 27.6391 57.773 27.0526C57.1823 26.8191 56.2654 27.0548 55.8193 26.5084C55.6272 26.273 55.7063 25.8364 55.7358 25.5567ZM57.6466 31.1286C58.1949 31.1163 58.7489 31.0868 59.2969 31.1131C59.8194 31.1152 60.3799 31.0802 60.8984 31.1276C60.9068 31.0777 60.9104 31.0284 60.9132 30.9779C60.9397 30.5099 59.9367 28.2733 59.68 27.6911C59.5849 27.6291 59.5154 27.5848 59.3981 27.5792C59.3548 28.2374 58.1284 30.7067 57.6705 31.1081C57.6626 31.115 57.6546 31.1218 57.6466 31.1286Z" fill="white"/>
<path d="M118.953 42.8776C119.242 42.4232 119.072 38.7083 118.959 38.0396C118.681 37.7561 118.251 38.0333 117.89 37.8021C117.852 37.7086 117.815 37.6059 117.816 37.5041C117.817 37.296 117.816 37.1797 117.967 37.0295C118.629 36.8355 119.347 36.8902 120.029 36.9174C120.283 37.004 120.498 37.1352 120.704 37.3047C121.25 37.7531 124.242 41.0114 124.294 41.5473L124.3 41.533C124.626 40.8337 124.647 38.6783 124.373 37.9326C124.249 37.7715 123.595 37.6545 123.37 37.4406C123.224 37.3023 123.237 37.2421 123.233 37.0531C123.241 37.047 123.249 37.0409 123.258 37.0352C123.679 36.7585 125.715 36.8738 126.251 36.9725L126.327 37.0958C126.25 37.8739 125.437 37.587 125.36 38.4623C125.267 39.5157 125.869 43.577 125.319 44.219C124.256 43.9397 121.188 39.2547 119.852 38.5127C119.92 38.6374 119.999 38.7785 120.033 38.9166C120.161 39.4326 120.175 42.4513 119.941 42.8331C120.507 42.9498 121.503 43.145 121.84 43.6425C121.754 43.7093 121.657 43.7841 121.555 43.8253C121.247 43.9498 114.211 44.005 113.881 43.8616C113.869 43.827 113.812 43.6868 113.825 43.6618C113.985 43.3472 114.651 43.1908 114.963 43.0838C114.969 43.0676 114.972 43.0521 114.974 43.0349C115.012 42.7105 114.486 41.633 114.268 41.3754C113.762 41.213 112.304 41.3714 111.704 41.3781C111.706 41.3844 111.707 41.3908 111.709 41.3971C111.806 41.8304 111.219 42.736 110.994 43.0844C111.222 43.15 111.485 43.2103 111.7 43.3097C111.897 43.4008 111.952 43.4906 112.02 43.6835L111.882 43.8088C111.339 43.9898 109.401 44.0506 108.936 43.836L108.94 43.569C109.093 43.2574 109.571 43.1521 109.851 42.9608C110.407 42.1985 112.193 38.6475 112.207 37.8309C111.954 37.7096 111.69 37.614 111.428 37.5148L111.389 37.3738C111.538 37.1681 111.742 37.0723 111.961 36.9576C112.649 36.8668 114.575 36.6976 115.156 37.0445C115.279 37.1184 115.275 37.2101 115.31 37.3419C115.057 37.4039 114.77 37.4459 114.586 37.6432C114.025 38.2446 116.421 42.0215 116.464 43.0415C116.856 43.1177 117.196 43.3001 117.577 43.3804C118.148 43.501 118.501 43.1736 118.953 42.8776ZM111.889 40.73C112.196 40.7238 112.585 40.7617 112.881 40.6994L114.024 40.7085C113.929 39.994 113.575 39.2108 113.294 38.5466C113.226 38.5034 113.143 38.4368 113.062 38.4281C112.79 39.2024 112.506 40.1614 111.889 40.73Z" fill="white"/>
<path d="M96.6607 36.9576C97.2949 36.8982 99.3453 36.6963 99.8214 37.0586C99.8287 37.2791 99.8188 37.3435 99.7159 37.5381C99.5199 37.6011 99.3368 37.6288 99.1324 37.6464C98.7772 38.4134 101.125 41.8027 101.097 42.9216C101.483 43.049 102.025 43.2121 102.311 43.5031C102.363 43.5566 102.342 43.6275 102.341 43.7002C102.332 43.7063 102.324 43.7125 102.315 43.7185C101.653 44.1748 99.332 43.9981 98.5434 43.8496C98.4625 43.7071 98.4706 43.6962 98.5067 43.5417C98.6964 43.3734 99.1026 43.4005 99.332 43.254C99.5026 43.1449 99.5052 43.0519 99.5467 42.8674C99.3953 42.4516 99.3291 41.9864 99.0357 41.6448L98.9964 41.4555C98.4784 41.1873 97.0511 41.3654 96.4353 41.364C96.4217 41.8476 96.0295 42.6641 95.7409 43.0525C95.9261 43.1264 96.1254 43.1981 96.2989 43.2967C96.4824 43.4011 96.5809 43.5015 96.6335 43.7029C96.5872 43.7617 96.5291 43.8104 96.4607 43.8414C95.9559 44.0692 94.1133 44.0268 93.6214 43.8296C93.6004 43.7252 93.5596 43.6402 93.6173 43.5445L93.6258 43.531C93.7853 43.2666 94.2475 43.222 94.4747 42.9759C94.4784 42.9719 94.482 42.9678 94.4857 42.9637C95.0471 42.3983 96.7096 38.7536 96.932 37.9578C96.8177 37.7356 96.353 37.6271 96.1181 37.4937L96.082 37.3491C96.2375 37.1174 96.4114 37.0514 96.6607 36.9576ZM97.8078 40.7066C98.0364 40.7133 98.5533 40.7895 98.7243 40.6671C98.6236 39.9503 98.2261 39.1896 97.9295 38.5317C97.8335 38.4776 97.7581 38.4392 97.6478 38.4279C97.6339 39.0835 97.057 40.2719 96.6195 40.7422C97.0184 40.7498 97.41 40.7357 97.8078 40.7066Z" fill="white"/>
<path d="M102.847 36.9577C104.353 36.8972 106.017 36.7513 107.496 37.0494C108.047 37.1603 108.675 37.4053 109.001 37.893C109.16 38.0347 109.235 38.2558 109.301 38.4535C109.455 38.9186 109.504 39.5146 109.28 39.9626C109.279 39.9891 109.277 40.015 109.272 40.0411C109.211 40.3184 108.771 40.6323 108.546 40.7781C108.107 41.0626 107.127 41.3903 106.606 41.2753C106.47 41.2452 106.466 41.2156 106.393 41.0994C106.542 40.502 107.576 40.3883 107.938 39.9529C108.103 39.7534 108.119 39.5086 108.093 39.2614C108.05 38.8449 107.906 38.328 107.562 38.0586C107.212 37.7851 106.36 37.6813 105.922 37.7421C105.739 37.7675 105.673 37.92 105.564 38.06C105.613 38.1474 105.658 38.2388 105.689 38.3338C105.876 38.9072 105.982 42.6204 105.758 43.0698C106.318 43.1345 106.841 43.1347 107.252 43.5788L107.229 43.7125C106.682 44.0607 103.946 44.0019 103.192 43.8786C103.021 43.8506 103.006 43.8543 102.905 43.7132C103.108 43.2071 103.607 43.2344 104.05 43.0198C104.311 42.5696 104.159 38.488 104.028 37.8107C103.799 37.6123 103.213 37.6605 102.878 37.3825C102.795 37.1842 102.768 37.1592 102.847 36.9577Z" fill="white"/>
<path d="M124.145 33.2812C125.07 33.1167 126.413 33.1277 127.338 33.2806C127.42 33.8625 127.139 35.1136 126.908 35.6575L126.888 35.7496C126.614 35.9276 124.341 35.8378 123.854 35.8667C123.867 35.8485 123.88 35.8303 123.892 35.8112C124.194 35.3308 124.271 33.8289 124.145 33.2812Z" fill="white"/>
<path d="M30 20H43.6014L43.5387 21.2166C42.2196 21.6617 40.8091 21.3001 39.4878 21.6078C39.443 21.8111 39.5362 21.9258 39.6456 22.0966C39.9283 22.538 40.296 22.949 40.6074 23.3733C42.0753 25.373 43.7304 27.2837 45.0527 29.3808C46.958 27.6742 49.2835 26.1009 50.8305 24.0641C49.6153 23.8936 48.3804 23.7587 47.1743 23.5371C47.0582 23.1653 46.9021 22.7707 46.9238 22.3769C46.9532 22.3498 47.0091 22.2822 47.0425 22.2675C47.4976 22.0674 57.3583 22.1861 58.6754 22.2179C58.6096 22.6524 58.3721 23.0352 58.0171 23.2972C57.0286 24.0268 55.6367 23.8813 54.5493 24.3672C52.8588 25.1225 47.3637 29.6329 46.454 31.2467C46.5845 32.6754 46.6197 34.885 46.4198 36.2981C47.8102 36.2569 49.2313 36.4534 50.6194 36.5498L50.5277 38.0151C46.2694 38.2581 41.9844 37.9958 37.7218 38.1145C37.6882 37.6268 37.6638 37.1527 37.6929 36.6634C38.6379 36.7081 40.3753 36.7603 41.1152 36.09C41.4106 35.8224 41.511 35.442 41.5287 35.056C41.5879 33.7611 41.4571 32.4363 41.4914 31.1313C39.2535 28.0986 36.7162 24.4902 33.9032 21.9998C32.6138 21.6712 31.3027 21.6727 30 21.4695V20Z" fill="white"/>
<path d="M125.056 20H129.958C129.973 20.037 129.978 20.0763 129.983 20.1155C130.055 20.7418 127.662 30.8077 127.345 31.2172C126.603 31.317 125.821 31.3011 125.072 31.3287C125.117 31.2531 125.151 31.1727 125.174 31.0874C125.36 30.3592 125.188 28.1511 125.187 27.2364C125.183 24.9847 125.302 22.6836 125.189 20.4377C125.181 20.2722 125.142 20.1429 125.056 20Z" fill="white"/>
<path d="M90.6168 36.8703C90.0422 36.7914 89.1856 36.7543 88.7562 36.3266L88.7198 36.1686C88.8543 35.967 88.8705 35.9227 89.1139 35.8743C90.033 35.6916 93.3929 35.6438 94.1849 35.9794L94.3455 36.1484C94.2948 36.352 94.2253 36.4213 94.0426 36.5305C93.6635 36.7573 93.1437 36.8485 92.7161 36.9559C93.1157 37.7258 92.7889 41.8178 92.5102 42.6992C92.4732 42.8143 92.4308 42.9272 92.383 43.0381C92.335 43.149 92.2817 43.2573 92.2231 43.3629C92.1645 43.4686 92.1009 43.5712 92.0323 43.6706C91.9637 43.7701 91.8904 43.8659 91.8124 43.9582C91.7342 44.0504 91.6519 44.1387 91.5654 44.2229C91.4786 44.3071 91.388 44.3869 91.2937 44.4622C91.1993 44.5376 91.1014 44.6082 90.9999 44.6739C90.8987 44.7397 90.7944 44.8004 90.6871 44.856C90.5883 44.9064 90.4884 44.9544 90.3874 45H89.133C90.3003 44.0013 90.6121 43.8071 90.7356 42.2281C90.8025 41.3682 90.9683 37.5177 90.6168 36.8703Z" fill="white"/>
<path d="M31.7852 58.4118L35.2723 49.3144H37.1896L40.6639 58.4118H38.9268L38.322 56.7261H34.1271L33.5095 58.4118H31.7852ZM34.6418 55.2721H37.7944L36.2246 50.9357L34.6418 55.2721Z" fill="white"/>
<path d="M48.9917 58.5147C48.1253 58.5147 47.4133 58.3474 46.8557 58.0129C46.2981 57.6697 45.8863 57.1894 45.6204 56.5717C45.3545 55.9541 45.2215 55.2249 45.2215 54.3842V49.3144H46.83V54.4228C46.83 54.886 46.8943 55.3193 47.023 55.7224C47.1602 56.1171 47.3876 56.4345 47.705 56.6747C48.0309 56.9148 48.4684 57.0349 49.0175 57.0349C49.5751 57.0349 50.004 56.9148 50.3042 56.6747C50.613 56.4259 50.8275 56.1042 50.9476 55.7096C51.0763 55.315 51.1406 54.886 51.1406 54.4228V49.3144H52.7619V54.3842C52.7619 55.2163 52.629 55.9412 52.363 56.5588C52.0971 57.1765 51.6896 57.6569 51.1406 58C50.5916 58.3432 49.8753 58.5147 48.9917 58.5147Z" fill="white"/>
<path d="M62.2337 58.5147C61.29 58.5147 60.4965 58.3217 59.8532 57.9357C59.2098 57.5411 58.7251 56.9963 58.3991 56.3015C58.0731 55.6066 57.9101 54.8003 57.9101 53.8824C57.9101 52.9645 58.0774 52.1538 58.412 51.4504C58.7465 50.747 59.2355 50.1979 59.8789 49.8033C60.5223 49.4001 61.3072 49.1985 62.2337 49.1985C62.92 49.1985 63.5247 49.3144 64.048 49.546C64.5713 49.7776 64.9959 50.1079 65.3219 50.5368C65.6565 50.9571 65.8709 51.4761 65.9653 52.0938H64.4083C64.2882 51.6563 64.0437 51.3131 63.6749 51.0644C63.306 50.8156 62.8256 50.6912 62.2337 50.6912C61.5903 50.6912 61.0713 50.8413 60.6767 51.1416C60.2821 51.4418 59.9947 51.8278 59.8146 52.2997C59.643 52.7715 59.5572 53.2776 59.5572 53.818C59.5572 54.3756 59.6473 54.8989 59.8274 55.3879C60.0162 55.8769 60.3121 56.2715 60.7153 56.5717C61.1185 56.872 61.6375 57.0221 62.2723 57.0221C62.6669 57.0221 63.01 56.9663 63.3017 56.8548C63.6019 56.7433 63.8507 56.5846 64.048 56.3787C64.2539 56.1642 64.3954 55.9155 64.4726 55.6324H66.1068C66.0039 56.2414 65.7723 56.7604 65.412 57.1894C65.0603 57.6183 64.6099 57.9485 64.0609 58.1802C63.5204 58.4032 62.9114 58.5147 62.2337 58.5147Z" fill="white"/>
<path d="M73.1924 58.4118V50.7813H70.3487V49.3144H77.6318V50.7813H74.788V58.4118H73.1924Z" fill="white"/>
<path d="M82.4527 58.4118V49.3144H84.0611V58.4118H82.4527Z" fill="white"/>
<path d="M93.685 58.5147C92.75 58.5147 91.9522 58.3174 91.2917 57.9228C90.6397 57.5282 90.1379 56.9792 89.7861 56.2758C89.443 55.5723 89.2714 54.7702 89.2714 53.8695C89.2714 52.9516 89.4473 52.1452 89.799 51.4504C90.1507 50.747 90.6569 50.1979 91.3174 49.8033C91.9779 49.4001 92.7757 49.1985 93.7108 49.1985C94.6458 49.1985 95.4393 49.3959 96.0913 49.7905C96.7518 50.1851 97.258 50.7341 97.6097 51.4375C97.9614 52.1324 98.1373 52.9345 98.1373 53.8438C98.1373 54.7445 97.9614 55.5466 97.6097 56.25C97.2665 56.9534 96.7604 57.5068 96.0913 57.9099C95.4308 58.3131 94.6287 58.5147 93.685 58.5147ZM93.7108 57.0221C94.3627 57.0221 94.8946 56.872 95.3064 56.5717C95.7181 56.2715 96.0184 55.8811 96.2071 55.4008C96.4044 54.9204 96.5031 54.4099 96.5031 53.8695C96.5031 53.4577 96.4473 53.0631 96.3358 52.6857C96.2328 52.3082 96.0656 51.9694 95.8339 51.6691C95.6109 51.3689 95.3235 51.133 94.9718 50.9614C94.6201 50.7813 94.1998 50.6912 93.7108 50.6912C93.0674 50.6912 92.5355 50.8413 92.1152 51.1416C91.7034 51.4418 91.3989 51.8321 91.2016 52.3125C91.0043 52.7929 90.9056 53.3119 90.9056 53.8695C90.9056 54.4185 91.0043 54.9332 91.2016 55.4136C91.3989 55.894 91.7034 56.2843 92.1152 56.5846C92.5355 56.8762 93.0674 57.0221 93.7108 57.0221Z" fill="white"/>
<path d="M103.339 58.4118V49.3144H105.064L109.451 55.9412V49.3144H111.06V58.4118H109.374L104.948 51.8235V58.4118H103.339Z" fill="white"/>
<path d="M120.151 58.5147C119.542 58.5147 118.967 58.4247 118.427 58.2445C117.895 58.0558 117.449 57.7598 117.089 57.3566C116.728 56.9449 116.492 56.4087 116.381 55.7482H118.015C118.118 56.0827 118.281 56.3444 118.504 56.5331C118.736 56.7218 119.006 56.8548 119.315 56.932C119.624 57.0006 119.937 57.0349 120.254 57.0349C120.537 57.0349 120.803 57.0006 121.052 56.932C121.309 56.8548 121.519 56.7304 121.682 56.5588C121.854 56.3873 121.94 56.1599 121.94 55.8769C121.94 55.6624 121.893 55.4908 121.798 55.3622C121.712 55.2249 121.588 55.1134 121.425 55.0276C121.271 54.9332 121.082 54.8603 120.859 54.8088C120.644 54.7402 120.413 54.6802 120.164 54.6287C119.915 54.5772 119.671 54.5215 119.431 54.4614C119.19 54.4014 118.963 54.3242 118.749 54.2298C118.474 54.1354 118.208 54.0282 117.951 53.9081C117.702 53.7794 117.483 53.625 117.295 53.4449C117.114 53.2647 116.969 53.0417 116.857 52.7758C116.746 52.5098 116.69 52.1924 116.69 51.8235C116.69 51.4032 116.758 51.0429 116.896 50.7427C117.041 50.4338 117.23 50.1808 117.462 49.9835C117.702 49.7862 117.968 49.6318 118.26 49.5202C118.56 49.4087 118.869 49.3272 119.186 49.2758C119.512 49.2243 119.821 49.1985 120.113 49.1985C120.679 49.1985 121.193 49.2929 121.657 49.4816C122.129 49.6704 122.515 49.962 122.815 50.3566C123.115 50.7512 123.287 51.2574 123.329 51.875H121.772C121.738 51.5834 121.635 51.3517 121.464 51.1802C121.292 51 121.078 50.8713 120.82 50.7941C120.563 50.7084 120.284 50.6655 119.984 50.6655C119.778 50.6655 119.572 50.6826 119.366 50.7169C119.169 50.7512 118.989 50.8113 118.826 50.8971C118.671 50.9829 118.543 51.0987 118.44 51.2445C118.345 51.3818 118.298 51.5576 118.298 51.7721C118.298 51.9608 118.345 52.1281 118.44 52.2739C118.534 52.4112 118.663 52.527 118.826 52.6213C118.997 52.7157 119.199 52.8015 119.431 52.8787C119.731 52.9988 120.057 53.0889 120.409 53.1489C120.769 53.209 121.108 53.2905 121.425 53.3934C121.734 53.4792 122.017 53.5864 122.274 53.7151C122.54 53.8352 122.768 53.9853 122.956 54.1655C123.145 54.337 123.291 54.5515 123.394 54.8088C123.505 55.0576 123.561 55.3579 123.561 55.7096C123.561 56.2243 123.467 56.6618 123.278 57.0221C123.098 57.3738 122.845 57.6612 122.519 57.8842C122.201 58.1072 121.837 58.2702 121.425 58.3732C121.022 58.4675 120.597 58.5147 120.151 58.5147Z" fill="white"/>
</g>
<defs>
<clipPath id="clip0_242_2723">
<rect width="100" height="40" fill="white" transform="translate(30 20)"/>
</clipPath>
</defs>
</svg>
